<svg width="145" height="166" viewBox="0 0 145 166" fill="none" xmlns="http://www.w3.org/2000/svg">
<path d="M72.5 82.8571C95.3828 82.8571 113.929 64.3114 113.929 41.4286C113.929 18.5458 95.3828 0 72.5 0C49.6172 0 31.0714 18.5458 31.0714 41.4286C31.0714 64.3114 49.6172 82.8571 72.5 82.8571ZM103.507 93.4085L88.0357 155.357L77.6786 111.339L88.0357 93.2143H56.9643L67.3214 111.339L56.9643 155.357L41.4933 93.4085C18.4163 94.5089 0 113.378 0 136.714V150.179C0 158.756 6.95871 165.714 15.5357 165.714H129.464C138.041 165.714 145 158.756 145 150.179V136.714C145 113.378 126.584 94.5089 103.507 93.4085V93.4085Z" fill="white"/>
</svg>
