<svg width="19" height="21" viewBox="0 0 19 21" fill="none" xmlns="http://www.w3.org/2000/svg">
<path d="M2.6491 16.4959H18.2142V0H2.60614C1.91563 0.00222012 1.25404 0.277507 0.765772 0.765772C0.277507 1.25404 0.00222012 1.91563 0 2.60614V17.7954H0.000472607C0.000472607 17.8019 0 17.8083 0 17.8148C0 19.3356 1.19346 20.62 2.60614 20.62H18.2142V19.2452H2.60614C1.96164 19.2452 1.37466 18.5634 1.37466 17.8147C1.37466 17.0999 1.95824 16.4959 2.6491 16.4959ZM13.7466 1.38896V8.8128L11.6674 6.98752L9.62261 8.80211V1.38896H13.7466ZM8.24795 1.37466V10.6536H9.60718L11.6724 8.82105L13.7597 10.6536H15.1212V1.37466H16.8396V15.1212H4.12741L4.12397 1.37466H8.24795ZM2.60614 1.37466H2.74932L2.75258 15.1212H2.64892C2.20194 15.1213 1.76271 15.238 1.37466 15.4599V2.61688C1.37361 2.28896 1.50267 1.97401 1.73354 1.74113C1.96441 1.50825 2.27822 1.37645 2.60614 1.37466Z" fill="#A8A8A8"/>
</svg>
