<svg width="131" height="149" viewBox="0 0 131 149" fill="none" xmlns="http://www.w3.org/2000/svg">
<path d="M130.375 104.766V6.98438C130.375 3.11387 127.261 0 123.391 0H27.9375C12.5137 0 0 12.5137 0 27.9375V121.062C0 136.486 12.5137 149 27.9375 149H123.391C127.261 149 130.375 145.886 130.375 142.016V137.359C130.375 135.177 129.356 133.198 127.785 131.917C126.563 127.436 126.563 114.66 127.785 110.179C129.356 108.927 130.375 106.948 130.375 104.766ZM37.25 38.9961C37.25 38.0357 38.0357 37.25 38.9961 37.25H100.691C101.652 37.25 102.438 38.0357 102.438 38.9961V44.8164C102.438 45.7768 101.652 46.5625 100.691 46.5625H38.9961C38.0357 46.5625 37.25 45.7768 37.25 44.8164V38.9961ZM37.25 57.6211C37.25 56.6607 38.0357 55.875 38.9961 55.875H100.691C101.652 55.875 102.438 56.6607 102.438 57.6211V63.4414C102.438 64.4018 101.652 65.1875 100.691 65.1875H38.9961C38.0357 65.1875 37.25 64.4018 37.25 63.4414V57.6211ZM110.993 130.375H27.9375C22.7865 130.375 18.625 126.213 18.625 121.062C18.625 115.941 22.8156 111.75 27.9375 111.75H110.993C110.44 116.726 110.44 125.399 110.993 130.375Z" fill="white"/>
</svg>
