<svg width="137" height="137" viewBox="0 0 137 137" fill="none" xmlns="http://www.w3.org/2000/svg">
<path d="M116.306 44.8755L92.1807 20.6998C90.5861 19.1013 88.4219 18.2013 86.164 18.1978C83.9061 18.1943 81.7392 19.0875 80.1396 20.6811L80.1209 20.6998L59.9375 40.9073V113.453L116.306 56.9674C117.906 55.3623 118.805 53.1881 118.805 50.9215C118.805 48.6548 117.906 46.4806 116.306 44.8755V44.8755ZM128.438 85.625H99.8307L49.9515 135.531C49.4003 136.085 48.7474 136.489 48.1641 137H128.438C130.708 137 132.886 136.098 134.492 134.492C136.098 132.886 137 130.708 137 128.438V94.1875C137 91.9166 136.098 89.7387 134.492 88.1329C132.886 86.5271 130.708 85.625 128.438 85.625ZM51.375 8.5625C51.375 6.29158 50.4729 4.11368 48.8671 2.5079C47.2613 0.902118 45.0834 0 42.8125 0L8.5625 0C6.29158 0 4.11368 0.902118 2.5079 2.5079C0.902118 4.11368 0 6.29158 0 8.5625L0 111.312C0 118.125 2.70635 124.659 7.52369 129.476C12.341 134.294 18.8748 137 25.6875 137C32.5002 137 39.034 134.294 43.8513 129.476C48.6686 124.659 51.375 118.125 51.375 111.312V8.5625ZM25.6875 117.734C24.4174 117.734 23.1758 117.358 22.1197 116.652C21.0636 115.946 20.2405 114.943 19.7545 113.77C19.2684 112.597 19.1412 111.305 19.389 110.06C19.6368 108.814 20.2484 107.67 21.1465 106.772C22.0447 105.873 23.1889 105.262 24.4347 105.014C25.6804 104.766 26.9716 104.893 28.145 105.379C29.3185 105.866 30.3214 106.689 31.0271 107.745C31.7327 108.801 32.1094 110.042 32.1094 111.312C32.1094 113.016 31.4328 114.649 30.2285 115.853C29.0241 117.058 27.3907 117.734 25.6875 117.734ZM34.25 68.5H17.125V51.375H34.25V68.5ZM34.25 34.25H17.125V17.125H34.25V34.25Z" fill="white"/>
</svg>
