<svg width="93" height="93" viewBox="0 0 93 93" fill="none" xmlns="http://www.w3.org/2000/svg">
<path d="M63.9196 46.3491L90.2727 19.9959C93.5066 16.762 93.5066 11.5188 90.2727 8.28226L84.4159 2.42543C81.182 -0.808475 75.9387 -0.808475 72.7022 2.42543L46.3491 28.7786L19.9959 2.42543C16.762 -0.808475 11.5188 -0.808475 8.28226 2.42543L2.42543 8.28226C-0.808475 11.5162 -0.808475 16.7594 2.42543 19.9959L28.7786 46.3491L2.42543 72.7022C-0.808475 75.9361 -0.808475 81.1793 2.42543 84.4159L8.28226 90.2727C11.5162 93.5066 16.762 93.5066 19.9959 90.2727L46.3491 63.9196L72.7022 90.2727C75.9361 93.5066 81.182 93.5066 84.4159 90.2727L90.2727 84.4159C93.5066 81.182 93.5066 75.9387 90.2727 72.7022L63.9196 46.3491Z" fill="#EEEEEE"/>
</svg>
