<svg width="99" height="98" viewBox="0 0 99 98" fill="none" xmlns="http://www.w3.org/2000/svg">
<path d="M68.2736 49L96.134 21.1396C99.5528 17.7207 99.5528 12.1776 96.134 8.75597L89.9422 2.56415C86.5233 -0.854716 80.9802 -0.854716 77.5585 2.56415L49.6981 30.4245L21.8377 2.56415C18.4189 -0.854716 12.8757 -0.854716 9.45409 2.56415L3.26227 8.75597C-0.156596 12.1748 -0.156596 17.718 3.26227 21.1396L31.1227 49L3.26227 76.8604C-0.156596 80.2793 -0.156596 85.8224 3.26227 89.244L9.45409 95.4359C12.8729 98.8547 18.4189 98.8547 21.8377 95.4359L49.6981 67.5755L77.5585 95.4359C80.9774 98.8547 86.5233 98.8547 89.9422 95.4359L96.134 89.244C99.5528 85.8252 99.5528 80.2821 96.134 76.8604L68.2736 49Z" fill="#EEEEEE"/>
</svg>
