<svg width="37" height="30" viewBox="0 0 37 30" fill="none" xmlns="http://www.w3.org/2000/svg">
<path d="M18.4722 13.2753L31.0932 0.654267C31.9655 -0.218068 33.3761 -0.218068 34.2392 0.654267L36.3365 2.75158C37.2088 3.62392 37.2088 5.0345 36.3365 5.89756L27.3997 14.8529L36.3457 23.799C37.2181 24.6713 37.2181 26.0819 36.3457 26.945L34.2484 29.0516C33.3761 29.9239 31.9655 29.9239 31.1025 29.0516L18.4814 16.4305C17.5998 15.5582 17.5998 14.1476 18.4722 13.2753V13.2753ZM0.654251 16.4305L13.2753 29.0516C14.1476 29.9239 15.5582 29.9239 16.4212 29.0516L18.5186 26.9542C19.3909 26.0819 19.3909 24.6713 18.5186 23.8083L9.57249 14.8622L18.5186 5.91612C19.3909 5.04378 19.3909 3.6332 18.5186 2.77014L16.4212 0.672829C15.5489 -0.199506 14.1383 -0.199506 13.2753 0.672829L0.654251 13.2938C-0.218084 14.1476 -0.218084 15.5582 0.654251 16.4305Z" fill="white"/>
</svg>
