<svg width="95" height="126" viewBox="0 0 95 126" fill="none" xmlns="http://www.w3.org/2000/svg">
<path d="M94.5 30.0089V31.5H63V0H64.4911C66.0575 8.1899e-06 67.5597 0.62223 68.6673 1.72979L92.77 25.8325C93.8776 26.9401 94.4999 28.4424 94.5 30.0089V30.0089ZM61.0312 39.375C57.7828 39.375 55.125 36.7172 55.125 33.4688V0H5.90625C2.64428 0 0 2.64428 0 5.90625V120.094C0 123.356 2.64428 126 5.90625 126H88.5938C91.8557 126 94.5 123.356 94.5 120.094V39.375H61.0312ZM27.6966 43.3125C34.2206 43.3125 39.5091 48.6011 39.5091 55.125C39.5091 61.6489 34.2206 66.9375 27.6966 66.9375C21.1727 66.9375 15.8841 61.6489 15.8841 55.125C15.8841 48.6011 21.1729 43.3125 27.6966 43.3125ZM78.8841 102.375H15.8841L16.0035 90.4431L25.7279 80.7188C26.8811 79.5656 28.6315 79.6849 29.7847 80.8381L39.5091 90.5625L64.9835 65.0881C66.1367 63.9349 68.0065 63.9349 69.16 65.0881L78.8841 74.8125V102.375Z" fill="white"/>
</svg>
