<svg width="24" height="25" viewBox="0 0 24 25" fill="none" xmlns="http://www.w3.org/2000/svg">
<path d="M21.8055 10.3108H21V10.2693H12V14.2693H17.6515C16.827 16.5978 14.6115 18.2693 12 18.2693C8.6865 18.2693 6 15.5828 6 12.2693C6 8.95579 8.6865 6.26929 12 6.26929C13.5295 6.26929 14.921 6.84629 15.9805 7.78879L18.809 4.96029C17.023 3.29579 14.634 2.26929 12 2.26929C6.4775 2.26929 2 6.74679 2 12.2693C2 17.7918 6.4775 22.2693 12 22.2693C17.5225 22.2693 22 17.7918 22 12.2693C22 11.5988 21.931 10.9443 21.8055 10.3108Z" fill="#FBC02D"/>
<path d="M3.15332 7.61479L6.43882 10.0243C7.32782 7.82329 9.48082 6.26929 12.0003 6.26929C13.5298 6.26929 14.9213 6.84629 15.9808 7.78879L18.8093 4.96029C17.0233 3.29579 14.6343 2.26929 12.0003 2.26929C8.15932 2.26929 4.82832 4.43779 3.15332 7.61479Z" fill="#E53935"/>
<path d="M12.0002 22.2696C14.5832 22.2696 16.9302 21.2811 18.7047 19.6736L15.6097 17.0546C14.6057 17.8151 13.3577 18.2696 12.0002 18.2696C9.39916 18.2696 7.19066 16.6111 6.35866 14.2966L3.09766 16.8091C4.75266 20.0476 8.11366 22.2696 12.0002 22.2696Z" fill="#4CAF50"/>
<path d="M21.8055 10.3108L21.7975 10.2693H21H12V14.2693H17.6515C17.2555 15.3878 16.536 16.3523 15.608 17.0548C15.6085 17.0543 15.609 17.0543 15.6095 17.0538L18.7045 19.6728C18.4855 19.8718 22 17.2693 22 12.2693C22 11.5988 21.931 10.9443 21.8055 10.3108Z" fill="#1565C0"/>
</svg>
