<svg width="112" height="149" viewBox="0 0 112 149" fill="none" xmlns="http://www.w3.org/2000/svg">
<path d="M111.75 35.4867V37.25H74.5V0H76.2633C78.1156 9.68489e-06 79.892 0.735811 81.2018 2.04555L109.704 30.5479C111.014 31.8578 111.75 33.6343 111.75 35.4867V35.4867ZM72.1719 46.5625C68.3305 46.5625 65.1875 43.4195 65.1875 39.5781V0H6.98438C3.12696 0 0 3.12696 0 6.98438V142.016C0 145.873 3.12696 149 6.98438 149H104.766C108.623 149 111.75 145.873 111.75 142.016V46.5625H72.1719ZM32.7524 51.2188C40.4672 51.2188 46.7211 57.4727 46.7211 65.1875C46.7211 72.9023 40.4672 79.1562 32.7524 79.1562C25.0375 79.1562 18.7836 72.9023 18.7836 65.1875C18.7836 57.4727 25.0378 51.2188 32.7524 51.2188ZM93.2836 121.062H18.7836L18.9247 106.953L30.4242 95.4531C31.7879 94.0894 33.8579 94.2306 35.2216 95.5943L46.7211 107.094L76.8456 76.9693C78.2093 75.6056 80.4204 75.6056 81.7844 76.9693L93.2836 88.4688V121.062Z" fill="white"/>
</svg>
