<svg width="164" height="164" viewBox="0 0 164 164" fill="none" xmlns="http://www.w3.org/2000/svg">
<path d="M82 0C36.7158 0 0 36.7291 0 82C0 127.297 36.7158 164 82 164C127.284 164 164 127.297 164 82C164 36.7291 127.284 0 82 0ZM82 36.371C89.6696 36.371 95.8871 42.5884 95.8871 50.2581C95.8871 57.9277 89.6696 64.1452 82 64.1452C74.3304 64.1452 68.1129 57.9277 68.1129 50.2581C68.1129 42.5884 74.3304 36.371 82 36.371ZM100.516 120.355C100.516 122.546 98.7396 124.323 96.5484 124.323H67.4516C65.2604 124.323 63.4839 122.546 63.4839 120.355V112.419C63.4839 110.228 65.2604 108.452 67.4516 108.452H71.4194V87.2903H67.4516C65.2604 87.2903 63.4839 85.5138 63.4839 83.3226V75.3871C63.4839 73.1959 65.2604 71.4194 67.4516 71.4194H88.6129C90.8041 71.4194 92.5806 73.1959 92.5806 75.3871V108.452H96.5484C98.7396 108.452 100.516 110.228 100.516 112.419V120.355Z" fill="white"/>
</svg>
