<svg width="88" height="116" viewBox="0 0 88 116" fill="none" xmlns="http://www.w3.org/2000/svg">
<path d="M0 81.5324H87.977V109.127H0V81.5324Z" fill="black"/>
<path d="M13.0512 85.3455H19.4226V96.4048C19.4226 98.7268 19.2121 100.494 18.7911 101.706C18.3794 102.917 17.5421 103.944 16.279 104.786C15.0253 105.628 13.4161 106.049 11.4514 106.049C9.37437 106.049 7.76516 105.771 6.62374 105.216C5.48232 104.661 4.59819 103.852 3.97135 102.788C3.35386 101.715 2.98898 100.392 2.87671 98.8193L8.95335 98.0006C8.96271 98.8979 9.04223 99.564 9.19193 99.9988C9.34162 100.434 9.59423 100.785 9.94975 101.053C10.193 101.229 10.5392 101.317 10.9883 101.317C11.6993 101.317 12.2186 101.058 12.546 100.54C12.8828 100.013 13.0512 99.1292 13.0512 97.8896V85.3455Z" fill="#969696"/>
<path d="M23.6327 85.3455H34.2002C36.5017 85.3455 38.2232 85.8867 39.3646 86.969C40.5154 88.0514 41.0908 89.5916 41.0908 91.5898C41.0908 93.6435 40.464 95.2485 39.2103 96.4048C37.9659 97.5612 36.062 98.1394 33.4985 98.1394H30.0181V105.688H23.6327V85.3455ZM30.0181 94.0181H31.5759C32.8015 94.0181 33.6622 93.81 34.1581 93.3937C34.654 92.9682 34.9019 92.427 34.9019 91.7702C34.9019 91.1319 34.6867 90.5907 34.2563 90.1467C33.826 89.7027 33.0167 89.4806 31.8285 89.4806H30.0181V94.0181Z" fill="#969696"/>
<path d="M44.4168 85.3455H61.4539V89.6888H50.7882V92.9219H60.682V97.0709H50.7882V101.081H61.7626V105.688H44.4168V85.3455Z" fill="#969696"/>
<path d="M75.5438 98.3198V94.0875H85.3675V102.76C83.487 104.027 81.8216 104.892 80.3715 105.355C78.9307 105.808 77.2185 106.035 75.2351 106.035C72.7932 106.035 70.8004 105.623 69.2567 104.8C67.7223 103.977 66.5294 102.751 65.6781 101.123C64.836 99.4946 64.415 97.6259 64.415 95.5168C64.415 93.2966 64.8781 91.3678 65.8044 89.7304C66.7306 88.0838 68.0872 86.8349 69.8742 85.9838C71.2682 85.327 73.144 84.9986 75.5017 84.9986C77.7752 84.9986 79.4733 85.2021 80.596 85.6092C81.7281 86.0162 82.6636 86.6499 83.4028 87.5102C84.1512 88.3613 84.7126 89.4436 85.0868 90.7572L78.954 91.8396C78.7014 91.0718 78.2711 90.4843 77.6629 90.0773C77.0642 89.6703 76.297 89.4668 75.3614 89.4668C73.9674 89.4668 72.854 89.9478 72.0213 90.9099C71.198 91.8627 70.7864 93.3752 70.7864 95.4474C70.7864 97.6491 71.2027 99.2217 72.0354 100.165C72.8774 101.109 74.0469 101.581 75.5438 101.581C76.2549 101.581 76.9332 101.479 77.5787 101.275C78.2243 101.072 78.9634 100.725 79.7961 100.235V98.3198H75.5438Z" fill="#969696"/>
<path fill-rule="evenodd" clip-rule="evenodd" d="M65.549 3.19391L84.7698 22.1988C86.8316 24.2375 88 27.0236 88 29.9004V79.3518H77.0036V39.8899H53.178C50.1311 39.8899 47.6798 37.4661 47.6798 34.4534V10.8955H11.0251V79.3518H0.0287413V10.8955C0.0287413 4.89279 4.95422 0.0226518 11.0251 0H57.7828C60.6923 0 63.4872 1.15524 65.549 3.19391ZM58.6762 29.017H76.1101L58.6762 11.7789V29.017Z" fill="black"/>
<path d="M1.74006 110.953C3.6916 113.986 7.12158 116 11.0251 116H77.0036C80.9072 116 84.3371 113.986 86.2887 110.953H1.74006Z" fill="black"/>
<path d="M69.6727 79.3518V65.2599L64.289 59.9367C63.2123 58.8721 61.4712 58.8721 60.3944 59.9367L40.7588 79.3518H69.6727Z" fill="black"/>
<path d="M39.939 79.3518H18.766L27.4052 70.8096C28.4819 69.745 30.223 69.745 31.2998 70.8096L39.939 79.3518Z" fill="black"/>
<path d="M18.3561 50.7627C18.3561 44.76 23.2816 39.8899 29.3525 39.8899C35.4234 39.8899 40.3489 44.76 40.3489 50.7627C40.3489 56.7655 35.4234 61.6356 29.3525 61.6356C23.2816 61.6356 18.3561 56.7655 18.3561 50.7627Z" fill="black"/>
</svg>
