<svg width="88" height="117" viewBox="0 0 88 117" fill="none" xmlns="http://www.w3.org/2000/svg">
<rect y="82" width="88" height="28" fill="black"/>
<path fill-rule="evenodd" clip-rule="evenodd" d="M65.5417 3.22144L84.7687 22.3902C86.8312 24.4464 88 27.2566 88 30.1582V80.0359H77V40.2337H53.1667C50.1187 40.2337 47.6667 37.7891 47.6667 34.7504V10.9895H11V80.0359H0V10.9895C0 4.93497 4.92708 0.0228471 11 0H57.7729C60.6833 0 63.4792 1.1652 65.5417 3.22144ZM58.6667 29.2671H76.1062L58.6667 11.8805V29.2671Z" fill="black"/>
<path d="M1.71188 111.91C3.66405 114.969 7.09516 117 11 117H77C80.9048 117 84.3359 114.969 86.2881 111.91H1.71188Z" fill="black"/>
<path d="M69.6667 80.0359V65.8225L64.2813 60.4534C63.2042 59.3796 61.4625 59.3796 60.3854 60.4534L40.7433 80.0359H69.6667Z" fill="black"/>
<path d="M39.9233 80.0359H18.7433L27.3854 71.42C28.4625 70.3462 30.2042 70.3462 31.2813 71.42L39.9233 80.0359Z" fill="black"/>
<path d="M18.3333 51.2004C18.3333 45.1459 23.2604 40.2337 29.3333 40.2337C35.4062 40.2337 40.3333 45.1459 40.3333 51.2004C40.3333 57.2548 35.4062 62.167 29.3333 62.167C23.2604 62.167 18.3333 57.2548 18.3333 51.2004Z" fill="black"/>
<path d="M21.4219 86.6832H27.7954V97.8379C27.7954 100.18 27.5848 101.962 27.1636 103.184C26.7518 104.407 25.9142 105.442 24.6508 106.291C23.3967 107.14 21.7869 107.565 19.8216 107.565C17.7439 107.565 16.1341 107.285 14.9923 106.725C13.8506 106.165 12.9661 105.349 12.3391 104.276C11.7214 103.194 11.3564 101.859 11.2441 100.273L17.3227 99.4474C17.3321 100.352 17.4116 101.024 17.5614 101.463C17.7111 101.901 17.9638 102.256 18.3194 102.526C18.5628 102.704 18.9091 102.792 19.3583 102.792C20.0696 102.792 20.589 102.531 20.9165 102.009C21.2535 101.477 21.4219 100.586 21.4219 99.3354V86.6832Z" fill="#8E8E8E"/>
<path d="M32.0069 86.6832H42.5778C44.8801 86.6832 46.6021 87.229 47.7439 88.3207C48.8951 89.4124 49.4707 90.9659 49.4707 92.9813C49.4707 95.0527 48.8436 96.6715 47.5895 97.8379C46.3448 99.0042 44.4402 99.5873 41.8759 99.5873H38.3944V107.201H32.0069V86.6832ZM38.3944 95.4306H39.9526C41.1786 95.4306 42.0397 95.2206 42.5357 94.8008C43.0317 94.3716 43.2797 93.8257 43.2797 93.1633C43.2797 92.5195 43.0645 91.9736 42.634 91.5257C42.2034 91.0779 41.3939 90.854 40.2053 90.854H38.3944V95.4306Z" fill="#8E8E8E"/>
<path d="M63.1581 99.7693V95.5006H72.985V104.248C71.1038 105.526 69.438 106.399 67.9873 106.865C66.546 107.322 64.8334 107.551 62.8493 107.551C60.4066 107.551 58.4131 107.136 56.8689 106.305C55.334 105.475 54.1408 104.239 53.2891 102.596C52.4468 100.954 52.0257 99.0695 52.0257 96.9421C52.0257 94.7028 52.4889 92.7574 53.4155 91.1059C54.342 89.445 55.699 88.1854 57.4866 87.327C58.8811 86.6645 60.7575 86.3333 63.116 86.3333C65.3902 86.3333 67.0889 86.5386 68.2119 86.9491C69.3444 87.3597 70.2803 87.9988 71.0196 88.8665C71.7683 89.725 72.3299 90.8166 72.7042 92.1416L66.5694 93.2332C66.3167 92.4588 65.8862 91.8663 65.2779 91.4558C64.6789 91.0452 63.9115 90.84 62.9756 90.84C61.5811 90.84 60.4674 91.3251 59.6345 92.2955C58.8109 93.2566 58.3991 94.7821 58.3991 96.8721C58.3991 99.0928 58.8156 100.679 59.6485 101.631C60.4908 102.582 61.6607 103.058 63.1581 103.058C63.8694 103.058 64.5479 102.956 65.1937 102.75C65.8394 102.545 66.5788 102.195 67.4117 101.701V99.7693H63.1581Z" fill="#8E8E8E"/>
</svg>
