<svg width="21" height="21" viewBox="0 0 21 21" fill="none" xmlns="http://www.w3.org/2000/svg">
<path d="M1.37467 19.2453V5.49866H0V19.589C0.000306994 19.8623 0.109029 20.1244 0.302312 20.3177C0.495595 20.511 0.757656 20.6197 1.031 20.62H15.1213V19.2453H1.37467Z" fill="#A8A8A8"/>
<path d="M5.49866 16.496H4.124V2.74933H2.74933V16.8397C2.74964 17.113 2.85836 17.3751 3.05164 17.5684C3.24492 17.7616 3.50698 17.8704 3.78033 17.8707H17.8707V16.496H5.49866Z" fill="#A8A8A8"/>
<path d="M19.589 0H6.52966C6.25631 0.000306994 5.99425 0.109029 5.80097 0.302312C5.60769 0.495595 5.49896 0.757656 5.49866 1.031V14.0903C5.49896 14.3637 5.60769 14.6257 5.80097 14.819C5.99425 15.0123 6.25631 15.121 6.52966 15.1213H19.589C19.8623 15.121 20.1244 15.0123 20.3177 14.819C20.511 14.6257 20.6197 14.3637 20.62 14.0903V1.031C20.6197 0.757656 20.511 0.495595 20.3177 0.302312C20.1244 0.109029 19.8623 0.000306994 19.589 0ZM19.2453 13.7467H6.87332V1.37467H19.2453V13.7467Z" fill="#A8A8A8"/>
<path d="M12.372 11.6847H13.7467V8.07617H17.3552V6.7015H13.7467V3.093H12.372V6.7015H8.76349V8.07617H12.372V11.6847Z" fill="#A8A8A8"/>
</svg>
