<svg width="171" height="135" viewBox="0 0 171 135" fill="none" xmlns="http://www.w3.org/2000/svg">
<path d="M139 96L140.042 95.7648C140.366 95.6953 140.691 95.6271 141.016 95.5612C141.512 95.4601 142.015 95.3577 142.512 95.2639C142.892 95.1944 143.266 95.131 143.646 95.0543L143.731 95.0287C144.123 94.9592 144.511 94.8824 144.903 94.8385L146.809 94.546V57H146.742C145.754 57.0061 144.775 57.0256 143.789 57.0573C142.703 57.0902 141.6 57.1536 140.516 57.2291C140.05 57.2596 139.578 57.3059 139.105 57.3425H139.038V95.9866L139 96ZM148.654 57.0256V94.3047C150.009 94.139 151.357 94.0061 152.706 93.905C156.034 93.6454 159.376 93.5625 162.71 93.6576C164.475 93.7148 166.241 93.8221 168 93.9744V59.4436C166.424 59.0682 164.845 58.7379 163.25 58.454C160.161 57.9019 157.047 57.5131 153.921 57.2657C152.173 57.1389 150.414 57.05 148.661 57.0256H148.654ZM165.549 81.0691L165.474 81.0642L164.591 80.9618C162.397 80.7278 160.19 80.5682 157.989 80.4926C155.783 80.4158 153.577 80.4427 151.365 80.5182H151.297C151.223 80.5182 151.156 80.5182 151.082 80.4926C150.922 80.4427 150.776 80.372 150.664 80.2525C150.462 80.0295 150.371 79.737 150.419 79.4445C150.432 79.3433 150.462 79.2739 150.505 79.1727C150.548 79.1033 150.603 79.007 150.664 78.957C150.731 78.8875 150.805 78.8363 150.891 78.7852C150.989 78.7413 151.081 78.7157 151.174 78.6913H151.314C151.621 78.6913 151.927 78.6657 152.21 78.6657C154.397 78.6158 156.561 78.6157 158.75 78.7096C161.01 78.812 163.249 78.9826 165.48 79.2495L165.719 79.2751C165.786 79.3007 165.855 79.3007 165.927 79.319C166.092 79.3957 166.233 79.4908 166.332 79.6176C166.399 79.687 166.442 79.7833 166.491 79.8845C166.542 79.9808 166.565 80.0746 166.565 80.177C166.59 80.4439 166.491 80.7096 166.308 80.907C166.233 80.9838 166.161 81.0277 166.092 81.0776C166.02 81.13 165.927 81.1471 165.835 81.1739C165.786 81.1995 165.76 81.1995 165.694 81.1995H165.62L165.549 81.0691ZM165.603 76.6657C165.529 76.6657 165.529 76.6657 165.456 76.6523L164.585 76.5366C162.397 76.2453 160.191 76.0491 158.002 75.9528C155.814 75.8321 153.601 75.8065 151.388 75.8565L151.314 75.8321C151.247 75.8065 151.174 75.8065 151.107 75.7822C150.966 75.7371 150.8 75.6359 150.708 75.5153C150.66 75.4385 150.585 75.3434 150.567 75.2727C150.444 74.9997 150.444 74.6889 150.585 74.4232C150.634 74.3209 150.683 74.2514 150.75 74.1746C150.817 74.1052 150.891 74.0284 150.984 74.0101C151.082 73.9601 151.174 73.9077 151.266 73.9077L151.407 73.8833L152.326 73.8577C154.52 73.8322 156.677 73.8833 158.841 74.004C161.105 74.1247 163.342 74.3465 165.572 74.6378L165.812 74.6633L165.953 74.6889C166.118 74.7389 166.259 74.8096 166.376 74.9558C166.565 75.1521 166.658 75.419 166.634 75.6859C166.634 75.787 166.61 75.8821 166.567 75.9528C166.518 76.0552 166.469 76.1246 166.425 76.2002C166.377 76.2697 166.309 76.3221 166.212 76.3988C166.145 76.4427 166.046 76.4671 165.955 76.4927L165.813 76.5183H165.746L165.603 76.6657ZM165.603 72.26C165.529 72.26 165.529 72.26 165.456 72.2466L164.585 72.1198C162.397 71.8078 160.208 71.5738 158.002 71.4215C155.814 71.2752 153.601 71.2058 151.388 71.2118H151.314L151.174 71.1863C151.081 71.1619 151.008 71.129 150.916 71.079C150.682 70.9267 150.517 70.6658 150.468 70.3685C150.468 70.2661 150.468 70.1698 150.492 70.076C150.517 69.9736 150.541 69.8858 150.585 69.7969C150.634 69.7079 150.708 69.6311 150.775 69.5617C150.891 69.441 151.056 69.3581 151.222 69.3216C151.296 69.3021 151.363 69.296 151.437 69.296H152.332C154.587 69.3094 156.85 69.3983 159.081 69.5751C161.269 69.7469 163.432 69.9943 165.603 70.3173L165.835 70.3502C165.909 70.3636 165.933 70.3636 165.976 70.3807C166.069 70.4136 166.165 70.4574 166.233 70.5135C166.332 70.5659 166.399 70.6354 166.449 70.7122C166.497 70.7865 166.542 70.8767 166.59 70.9717C166.688 71.2252 166.657 71.5117 166.542 71.7457C166.498 71.8346 166.449 71.9175 166.376 71.9882C166.259 72.1088 166.118 72.1917 165.953 72.2283C165.91 72.2478 165.886 72.2478 165.812 72.2539L165.745 72.26H165.603ZM165.603 67.8554C165.529 67.8554 165.529 67.8554 165.456 67.842L164.585 67.6958C162.397 67.3265 160.208 67.0608 158.002 66.8902C155.814 66.6939 153.601 66.5977 151.388 66.5477H151.314L151.149 66.5282C151.056 66.5038 150.971 66.4514 150.891 66.4075C150.805 66.3576 150.737 66.2808 150.67 66.2113C150.615 66.1345 150.567 66.0395 150.524 65.9712C150.492 65.8688 150.468 65.7726 150.457 65.6726C150.432 65.3801 150.536 65.0693 150.738 64.8731C150.855 64.7525 151.015 64.6696 151.181 64.6245C151.247 64.6062 151.321 64.6062 151.388 64.6062C151.689 64.6062 151.982 64.6123 152.284 64.6196C154.539 64.6696 156.789 64.8037 159.038 65.0194C161.214 65.2095 163.384 65.5008 165.543 65.8688L165.758 65.8944C165.819 65.8944 165.837 65.8944 165.898 65.9127C165.997 65.9456 166.071 65.9895 166.156 66.0395C166.23 66.0846 166.297 66.1613 166.354 66.2308C166.494 66.4514 166.561 66.7183 166.518 66.9864C166.494 67.0876 166.47 67.1571 166.419 67.2582C166.371 67.3277 166.303 67.424 166.23 67.4739C166.113 67.5958 165.972 67.6702 165.807 67.7226H165.592L165.603 67.8554ZM141.01 67.023C140.869 67.023 140.728 66.9901 140.588 66.9206C140.28 66.7695 140.09 66.4441 140.066 66.1028C140.066 66.0066 140.09 65.9176 140.115 65.8359C140.138 65.7202 140.189 65.6202 140.256 65.5239C140.328 65.4167 140.421 65.3277 140.513 65.2643C140.636 65.1815 140.777 65.1376 140.894 65.112L141.647 65.0425C142.678 64.9487 143.695 64.8719 144.707 64.8085H144.797C144.963 64.8146 145.103 64.8463 145.221 64.9219C145.527 65.0876 145.717 65.4179 145.717 65.7665C145.717 65.8542 145.692 65.9432 145.668 66.0261C145.644 66.1333 145.601 66.2418 145.527 66.3295C145.46 66.4563 145.361 66.5258 145.269 66.6025C145.153 66.672 145.03 66.7232 144.889 66.7488C144.729 66.7744 144.564 66.7744 144.398 66.7927C144.183 66.8182 143.951 66.8183 143.712 66.8451L141.88 66.9901L141.433 67.0425C141.34 67.0669 141.243 67.0669 141.125 67.0669L141.01 67.023ZM165.578 63.4496L165.432 63.4301L164.567 63.2705C162.372 62.8902 160.159 62.5794 157.953 62.3503C155.764 62.1273 153.551 61.9883 151.339 61.9116H151.264L151.123 61.8811C151.033 61.8555 150.964 61.8238 150.866 61.7677C150.798 61.7153 150.724 61.652 150.658 61.5691C150.467 61.3485 150.395 61.0365 150.467 60.7513C150.491 60.6489 150.534 60.5551 150.584 60.4588C150.632 60.3564 150.701 60.287 150.774 60.2114C150.89 60.0895 151.055 60.0128 151.221 59.9689C151.288 59.9433 151.362 59.9433 151.429 59.9433L152.348 59.9689C154.536 60.0652 156.699 60.2114 158.864 60.4576C161.125 60.6977 163.356 61.0414 165.594 61.4289L165.826 61.4533C165.9 61.4533 165.925 61.4533 165.967 61.4789C166.066 61.5033 166.157 61.5557 166.231 61.5996C166.439 61.7714 166.581 62.0188 166.607 62.2857C166.63 62.3796 166.607 62.4758 166.582 62.5782C166.582 62.6721 166.539 62.7744 166.489 62.8451C166.441 62.9219 166.391 62.9914 166.324 63.0657C166.208 63.1876 166.042 63.2571 165.877 63.2814L165.742 63.307H165.667L165.578 63.4496ZM140.985 62.198C140.852 62.198 140.717 62.1675 140.594 62.1102C140.484 62.0517 140.381 61.9749 140.3 61.8872C140.226 61.7982 140.165 61.7032 140.123 61.5886C140.091 61.5118 140.072 61.4241 140.062 61.3351C140.03 60.9853 140.184 60.6428 140.465 60.4466C140.589 60.3638 140.723 60.3065 140.87 60.287C141.121 60.2687 141.368 60.2687 141.613 60.2431C142.635 60.1663 143.655 60.1224 144.671 60.0725H144.752C144.893 60.0968 145.034 60.1224 145.15 60.1931C145.432 60.3637 145.622 60.7062 145.622 61.0426C145.622 61.145 145.598 61.2388 145.572 61.3156C145.524 61.4362 145.481 61.5313 145.413 61.6337C145.339 61.7275 145.24 61.8238 145.125 61.8738C145.008 61.9506 144.867 61.9944 144.726 61.9944C144.561 62.02 144.395 62.02 144.204 62.02L143.499 62.07C142.868 62.1139 142.255 62.1395 141.641 62.1907L141.17 62.2163C141.053 62.2418 140.962 62.2418 140.863 62.2418L140.985 62.198Z" fill="url(#paint0_linear_114_29)"/>
<path d="M139.187 44.3379C138.608 46.6516 121.821 45.6429 106.149 47.282C104.89 46.7966 103.536 46.3553 102.151 45.9518C85.7732 41.192 61.0779 45.4411 43.9889 54.4059C56.9473 44.6846 77.172 33.5259 95.7092 33.0531C127.11 32.2461 139.993 41.1164 139.187 44.3379Z" fill="url(#paint1_linear_114_29)"/>
<path d="M106.18 54.8166C106.18 54.8166 86.0311 44.3388 62.7336 63.6868C39.4362 83.0348 32.9444 109.633 37.7739 112.861C42.6034 116.088 48.2388 92.6868 69.981 76.5855C82.9205 66.9903 101.388 59.1162 111.047 72.6831C121.468 79.6746 106.18 54.8166 106.18 54.8166Z" fill="url(#paint2_linear_114_29)"/>
<path d="M119.863 108.832C119.863 108.832 124.554 53.4545 72.7138 56.9471C67.0468 57.4136 59.1635 60.8243 51.3494 64.2917C40.1729 69.3351 31.6158 69.9656 30.5139 68.5219C29.5253 67.198 35.016 61.1458 44.0075 54.4065C61.0776 45.4417 85.7729 41.1926 102.15 45.9523C103.536 46.3558 104.877 46.7971 106.149 47.2826C119.076 52.1243 126.525 60.8873 128.722 73.3573C132.859 96.8662 123.893 112.053 119.863 108.832Z" fill="url(#paint3_linear_114_29)"/>
<path d="M95.7086 27.4113C103.269 27.4113 109.397 21.2751 109.397 13.7056C109.397 6.13622 103.269 0 95.7086 0C88.1485 0 82.0198 6.13622 82.0198 13.7056C82.0198 21.2751 88.1485 27.4113 95.7086 27.4113Z" fill="#0E44E1"/>
<path d="M6.2025 122.721C6.2025 122.721 71.555 148.329 135.529 125.583C171.054 112.974 176.368 101.916 166.684 104.23C127.11 113.687 64.3139 123.338 28.6499 117.759C-8.73305 111.909 -1.51714 118.093 6.2025 122.721Z" fill="url(#paint4_linear_114_29)"/>
<defs>
<linearGradient id="paint0_linear_114_29" x1="153.5" y1="57" x2="153.5" y2="96" gradientUnits="userSpaceOnUse">
<stop stop-color="#0E44E1"/>
<stop offset="1" stop-color="#041669"/>
</linearGradient>
<linearGradient id="paint1_linear_114_29" x1="59.9823" y1="44.4198" x2="134.308" y2="39.0239" gradientUnits="userSpaceOnUse">
<stop stop-color="#0E44E1"/>
<stop offset="1" stop-color="#0D33B8"/>
</linearGradient>
<linearGradient id="paint2_linear_114_29" x1="39.1025" y1="91.842" x2="111.696" y2="62.1102" gradientUnits="userSpaceOnUse">
<stop stop-color="#0E44E1"/>
<stop offset="1" stop-color="#041669"/>
</linearGradient>
<linearGradient id="paint3_linear_114_29" x1="9190.01" y1="6116.62" x2="18842.4" y2="14458.8" gradientUnits="userSpaceOnUse">
<stop stop-color="#0E44E1"/>
<stop offset="1" stop-color="#0D33B8"/>
</linearGradient>
<linearGradient id="paint4_linear_114_29" x1="0.000341038" y1="119.461" x2="170.96" y2="119.461" gradientUnits="userSpaceOnUse">
<stop stop-color="#0D33B8"/>
<stop offset="1" stop-color="#0E44E1"/>
</linearGradient>
</defs>
</svg>
