<svg width="98" height="75" viewBox="0 0 98 75" fill="none" xmlns="http://www.w3.org/2000/svg">
<path d="M79.5261 50.5652L80.1699 50.4229C80.3706 50.3809 80.5714 50.3396 80.7722 50.2998C81.0784 50.2387 81.3897 50.1768 81.6967 50.12C81.9317 50.078 82.163 50.0397 82.3979 49.9932L82.4503 49.9778C82.6925 49.9358 82.9326 49.8893 83.1748 49.8628L84.3525 49.6859V26.981H84.311C83.7007 26.9846 83.0955 26.9964 82.4859 27.0156C81.8145 27.0355 81.133 27.0738 80.463 27.1195C80.175 27.1379 79.8833 27.1659 79.5909 27.1881H79.5494V50.5571L79.5261 50.5652ZM85.493 26.9964V49.54C86.3303 49.4397 87.1639 49.3594 87.9975 49.2982C90.0546 49.1413 92.1197 49.0911 94.1804 49.1486C95.2715 49.1833 96.3626 49.2481 97.4501 49.3403V28.4587C96.4761 28.2317 95.4999 28.0319 94.5143 27.8602C92.6049 27.5263 90.6802 27.2912 88.7482 27.1416C87.668 27.065 86.5805 27.0112 85.4974 26.9964H85.493ZM95.9349 41.5361L95.8891 41.5331L95.3428 41.4712C93.9869 41.3297 92.6231 41.2332 91.2628 41.1875C89.8989 41.1411 88.5358 41.1573 87.1682 41.203H87.1268C87.081 41.203 87.0395 41.203 86.9937 41.1875C86.8947 41.1573 86.8045 41.1145 86.7354 41.0423C86.6103 40.9074 86.5543 40.7305 86.5841 40.5537C86.5921 40.4925 86.6103 40.4505 86.6372 40.3893C86.6634 40.3473 86.6976 40.2891 86.7354 40.2589C86.7769 40.2169 86.8227 40.1859 86.8758 40.1549C86.9362 40.1284 86.9929 40.1129 87.0504 40.0982H87.137C87.3268 40.0982 87.5159 40.0827 87.6905 40.0827C89.0428 40.0525 90.3797 40.0525 91.7327 40.1093C93.1301 40.1712 94.5136 40.2743 95.8927 40.4357L96.0404 40.4512C96.0819 40.4667 96.1241 40.4667 96.1692 40.4778C96.271 40.5242 96.3583 40.5817 96.4194 40.6583C96.4608 40.7003 96.487 40.7586 96.5176 40.8197C96.5489 40.8779 96.5634 40.9347 96.5634 40.9966C96.5787 41.158 96.5176 41.3187 96.4041 41.4381C96.3583 41.4845 96.3132 41.511 96.271 41.5413C96.2266 41.5729 96.1692 41.5833 96.1117 41.5995C96.0819 41.615 96.0659 41.615 96.0251 41.615H95.9793L95.9349 41.5361ZM95.9684 38.8733C95.9226 38.8733 95.9226 38.8733 95.8775 38.8652L95.3392 38.7952C93.9869 38.619 92.6238 38.5004 91.2708 38.4421C89.9186 38.3692 88.5503 38.3537 87.1828 38.3839L87.137 38.3692C87.0955 38.3537 87.0504 38.3537 87.0089 38.339C86.9217 38.3117 86.8191 38.2505 86.7624 38.1776C86.7325 38.1311 86.6867 38.0736 86.6751 38.0309C86.5994 37.8658 86.5994 37.6779 86.6867 37.5172C86.7165 37.4553 86.7471 37.4133 86.7885 37.3668C86.83 37.3248 86.8758 37.2784 86.9333 37.2674C86.9937 37.2371 87.0504 37.2054 87.1071 37.2054L87.1944 37.1907L87.7625 37.1752C89.1184 37.1598 90.4517 37.1907 91.7894 37.2637C93.1882 37.3366 94.571 37.4708 95.9495 37.6469L96.0979 37.6624L96.1852 37.6779C96.287 37.7081 96.3743 37.7508 96.4463 37.8393C96.5634 37.9579 96.6209 38.1193 96.6056 38.2807C96.6056 38.3419 96.5911 38.3994 96.5641 38.4421C96.5343 38.5041 96.5038 38.5461 96.4768 38.5918C96.447 38.6338 96.4048 38.6655 96.3452 38.7119C96.3037 38.7384 96.2426 38.7532 96.1859 38.7686L96.0986 38.7841H96.0571L95.9684 38.8733ZM95.9684 36.209C95.9226 36.209 95.9226 36.209 95.8775 36.2009L95.3392 36.1243C93.9869 35.9356 92.634 35.7941 91.2708 35.702C89.9186 35.6135 88.5503 35.5715 87.1828 35.5752H87.137L87.0504 35.5597C86.9929 35.545 86.9478 35.5251 86.8911 35.4949C86.7463 35.4027 86.6445 35.245 86.614 35.0652C86.614 35.0033 86.614 34.945 86.6292 34.8883C86.6445 34.8264 86.6591 34.7733 86.6867 34.7195C86.7165 34.6657 86.7624 34.6193 86.8038 34.5773C86.8758 34.5043 86.9777 34.4542 87.0802 34.4321C87.1261 34.4203 87.1675 34.4166 87.2133 34.4166H87.7662C89.1599 34.4247 90.5587 34.4785 91.9378 34.5854C93.2901 34.6893 94.6271 34.8389 95.9684 35.0342L96.1117 35.0541C96.1575 35.0622 96.1728 35.0622 96.199 35.0725C96.2564 35.0924 96.3161 35.119 96.3583 35.1529C96.4194 35.1846 96.4608 35.2266 96.4914 35.273C96.5212 35.318 96.5489 35.3725 96.5787 35.43C96.6391 35.5833 96.6201 35.7565 96.5489 35.898C96.5219 35.9518 96.4914 36.0019 96.4463 36.0447C96.3743 36.1176 96.287 36.1677 96.1852 36.1899C96.1582 36.2016 96.1437 36.2016 96.0979 36.2053L96.0564 36.209H95.9684ZM95.9684 33.5455C95.9226 33.5455 95.9226 33.5455 95.8775 33.5374L95.3392 33.4489C93.9869 33.2256 92.634 33.0649 91.2708 32.9618C89.9186 32.8431 88.5503 32.7849 87.1828 32.7547H87.137L87.0351 32.7429C86.9777 32.7281 86.9253 32.6964 86.8758 32.6699C86.8227 32.6397 86.7805 32.5933 86.7391 32.5513C86.7049 32.5048 86.6751 32.4473 86.6489 32.4061C86.6292 32.3442 86.614 32.2859 86.6074 32.2255C86.5921 32.0486 86.6561 31.8607 86.7813 31.742C86.8533 31.6691 86.9522 31.6189 87.0548 31.5917C87.0955 31.5806 87.1413 31.5806 87.1828 31.5806C87.369 31.5806 87.5501 31.5843 87.7363 31.5887C89.1301 31.6189 90.5209 31.7 91.9109 31.8305C93.2559 31.9454 94.5972 32.1216 95.9313 32.3442L96.0644 32.3596C96.1022 32.3596 96.1131 32.3596 96.151 32.3707C96.2121 32.3906 96.2579 32.4171 96.3103 32.4473C96.3561 32.4746 96.3976 32.521 96.4325 32.563C96.519 32.6964 96.5605 32.8578 96.5343 33.02C96.519 33.0812 96.5045 33.1232 96.4732 33.1843C96.4434 33.2263 96.4012 33.2846 96.3561 33.3148C96.2841 33.3885 96.1968 33.4334 96.095 33.4651H95.9618L95.9684 33.5455ZM80.7685 33.0421C80.6812 33.0421 80.594 33.0222 80.5074 32.9802C80.3175 32.8888 80.1997 32.692 80.1852 32.4857C80.1852 32.4274 80.1997 32.3736 80.215 32.3243C80.2295 32.2542 80.2608 32.1938 80.3023 32.1356C80.3466 32.0707 80.4041 32.0169 80.4616 31.9786C80.5372 31.9285 80.6245 31.9019 80.6965 31.8865L81.1621 31.8445C81.7993 31.7877 82.4277 31.7413 83.0533 31.703H83.1093C83.2119 31.7066 83.2984 31.7258 83.3712 31.7715C83.5603 31.8717 83.6774 32.0715 83.6774 32.2822C83.6774 32.3353 83.6621 32.3891 83.6476 32.4392C83.6323 32.5041 83.6061 32.5697 83.5603 32.6227C83.5189 32.6994 83.4577 32.7414 83.401 32.7878C83.329 32.8298 83.2533 32.8608 83.1661 32.8763C83.0671 32.8917 82.9653 32.8917 82.8627 32.9028C82.7296 32.9183 82.5863 32.9183 82.4387 32.9345L81.3061 33.0222L81.0297 33.0539C80.9722 33.0686 80.9126 33.0686 80.8398 33.0686L80.7685 33.0421ZM95.9531 30.8812L95.8629 30.8694L95.3283 30.7729C93.9717 30.5429 92.6041 30.355 91.2403 30.2164C89.8873 30.0815 88.5198 29.9975 87.1522 29.9511H87.1064L87.0191 29.9327C86.9631 29.9172 86.9209 29.898 86.8598 29.8641C86.8184 29.8324 86.7725 29.7941 86.7318 29.744C86.6132 29.6106 86.5689 29.4219 86.6132 29.2495C86.6285 29.1876 86.6547 29.1308 86.686 29.0726C86.7158 29.0107 86.758 28.9687 86.8031 28.923C86.8751 28.8493 86.9769 28.8028 87.0795 28.7763C87.121 28.7608 87.1668 28.7608 87.2083 28.7608L87.7764 28.7763C89.1286 28.8345 90.4656 28.923 91.8033 29.0718C93.2006 29.217 94.5798 29.4249 95.9633 29.6592L96.1066 29.674C96.1524 29.674 96.1677 29.674 96.1939 29.6895C96.255 29.7042 96.311 29.7359 96.3568 29.7624C96.4856 29.8663 96.5729 30.0159 96.5889 30.1774C96.6034 30.2341 96.5889 30.2923 96.5736 30.3542C96.5736 30.411 96.5474 30.4729 96.5161 30.5156C96.4863 30.5621 96.4558 30.6041 96.4143 30.649C96.3423 30.7227 96.2397 30.7647 96.1379 30.7795L96.0542 30.795H96.0084L95.9531 30.8812ZM80.7533 30.1243C80.6711 30.1243 80.5874 30.1059 80.511 30.0712C80.4434 30.0358 80.3794 29.9894 80.3299 29.9364C80.2841 29.8826 80.2463 29.8251 80.2201 29.7558C80.2004 29.7094 80.1888 29.6563 80.1822 29.6025C80.1626 29.391 80.2579 29.1839 80.4317 29.0652C80.5081 29.0151 80.591 28.9805 80.682 28.9687C80.8369 28.9576 80.9897 28.9576 81.141 28.9421C81.7731 28.8957 82.403 28.8692 83.0315 28.8389H83.081C83.1682 28.8537 83.2555 28.8692 83.3275 28.9119C83.5014 29.0151 83.6192 29.2222 83.6192 29.4256C83.6192 29.4875 83.604 29.5443 83.588 29.5907C83.5581 29.6637 83.5319 29.7211 83.4898 29.7831C83.4439 29.8398 83.3828 29.898 83.3115 29.9282C83.2395 29.9747 83.1522 30.0012 83.0649 30.0012C82.9631 30.0167 82.8605 30.0167 82.7427 30.0167L82.307 30.0469C81.9171 30.0734 81.5381 30.0889 81.1584 30.1199L80.8675 30.1353C80.7947 30.1508 80.7387 30.1508 80.6776 30.1508L80.7533 30.1243Z" fill="white"/>
<path d="M76.5313 24.3789C76.2128 25.6511 66.9827 25.0964 58.3654 25.9977C57.6729 25.7308 56.9286 25.4881 56.1669 25.2663C47.1618 22.6492 33.5833 24.9855 24.187 29.9147C31.3121 24.5695 42.4326 18.434 52.6251 18.174C69.8909 17.7303 76.9744 22.6076 76.5313 24.3789Z" fill="white"/>
<path d="M58.3825 30.1406C58.3825 30.1406 47.3036 24.3794 34.4936 35.0178C21.6837 45.6562 18.1142 60.281 20.7697 62.0558C23.4251 63.8306 26.5237 50.9633 38.4786 42.1101C45.5933 36.8342 55.7478 32.5047 61.0587 39.9644C66.7886 43.8086 58.3825 30.1406 58.3825 30.1406Z" fill="white"/>
<path d="M65.9058 59.8405C65.9058 59.8405 68.4851 29.3916 39.9813 31.312C36.8653 31.5685 32.5307 33.4438 28.2342 35.3503C22.0889 38.1235 17.3838 38.4701 16.7779 37.6763C16.2344 36.9484 19.2534 33.6206 24.1973 29.915C33.5832 24.9858 47.1618 22.6494 56.1668 25.2666C56.9285 25.4884 57.6659 25.7311 58.3653 25.998C65.4731 28.6602 69.5688 33.4785 70.7771 40.335C73.0517 53.2613 68.1216 61.6118 65.9058 59.8405Z" fill="white"/>
<path d="M52.6247 15.0719C56.7816 15.0719 60.1515 11.698 60.1515 7.53596C60.1515 3.37397 56.7816 0 52.6247 0C48.4679 0 45.098 3.37397 45.098 7.53596C45.098 11.698 48.4679 15.0719 52.6247 15.0719Z" fill="white"/>
<path d="M3.41041 67.4773C3.41041 67.4773 39.3441 81.5578 74.5195 69.051C94.053 62.1182 96.9751 56.0381 91.6503 57.3103C69.8906 62.5099 35.3626 67.817 15.753 64.7492C-4.80182 61.5324 -0.834191 64.9329 3.41041 67.4773Z" fill="white"/>
</svg>
