<svg width="88" height="117" viewBox="0 0 88 117" fill="none" xmlns="http://www.w3.org/2000/svg">
<path d="M0 82.2143H88V110.046H0V82.2143Z" fill="black"/>
<path d="M12.5421 86.0317H23.1123C25.4145 86.0317 27.1364 86.5775 28.2781 87.6692C29.4292 88.7609 30.0047 90.3144 30.0047 92.3298C30.0047 94.4012 29.3777 96.02 28.1237 97.1863C26.8791 98.3526 24.9746 98.9358 22.4105 98.9358H18.9292V106.55H12.5421V86.0317ZM18.9292 94.779H20.4873C21.7133 94.779 22.5742 94.5691 23.0702 94.1492C23.5662 93.72 23.8142 93.1742 23.8142 92.5117C23.8142 91.8679 23.599 91.3221 23.1685 90.8742C22.738 90.4264 21.9285 90.2024 20.74 90.2024H18.9292V94.779Z" fill="#9A9A9A"/>
<path d="M33.3878 86.0317H39.3256L47.0743 97.3823V86.0317H53.0683V106.55H47.0743L39.3677 95.2829V106.55H33.3878V86.0317Z" fill="#9A9A9A"/>
<path d="M67.6392 99.1177V94.849H77.4655V103.596C75.5845 104.875 73.9187 105.747 72.4681 106.214C71.027 106.671 69.3144 106.899 67.3304 106.899C64.8879 106.899 62.8946 106.484 61.3504 105.654C59.8157 104.823 58.6225 103.587 57.7709 101.945C56.9286 100.303 56.5075 98.4179 56.5075 96.2906C56.5075 94.0513 56.9708 92.1058 57.8972 90.4543C58.8237 88.7935 60.1807 87.5339 61.9681 86.6755C63.3625 86.013 65.2388 85.6818 67.5971 85.6818C69.8712 85.6818 71.5697 85.8871 72.6927 86.2976C73.8251 86.7081 74.7609 87.3473 75.5002 88.215C76.2489 89.0734 76.8104 90.1651 77.1847 91.49L71.0504 92.5817C70.7977 91.8073 70.3672 91.2148 69.7589 90.8042C69.16 90.3937 68.3926 90.1884 67.4568 90.1884C66.0624 90.1884 64.9487 90.6736 64.1158 91.644C63.2923 92.605 62.8805 94.1306 62.8805 96.2206C62.8805 98.4413 63.297 100.027 64.1299 100.979C64.9721 101.931 66.1419 102.407 67.6392 102.407C68.3505 102.407 69.029 102.304 69.6747 102.099C70.3204 101.894 71.0597 101.544 71.8926 101.049V99.1177H67.6392Z" fill="#9A9A9A"/>
<path fill-rule="evenodd" clip-rule="evenodd" d="M65.5374 3.22144L84.7632 22.3902C86.8256 24.4464 87.9943 27.2566 87.9943 30.1582V80.0359H76.995V40.2337H53.1632C50.1155 40.2337 47.6636 37.7891 47.6636 34.7504V10.9895H10.9993V80.0359H0V10.9895C0 4.93497 4.92676 0.0228471 10.9993 0H57.7691C60.6794 0 63.475 1.1652 65.5374 3.22144ZM58.6628 29.2671H76.1013L58.6628 11.8805V29.2671Z" fill="black"/>
<path d="M1.71177 111.91C3.66381 114.969 7.0947 117 10.9993 117H76.995C80.8996 117 84.3304 114.969 86.2825 111.91H1.71177Z" fill="black"/>
<path d="M69.6621 80.0359V65.8225L64.2771 60.4534C63.2 59.3796 61.4585 59.3796 60.3815 60.4534L40.7407 80.0359H69.6621Z" fill="black"/>
<path d="M39.9207 80.0359H18.7421L27.3836 71.42C28.4606 70.3462 30.2022 70.3462 31.2792 71.42L39.9207 80.0359Z" fill="black"/>
<path d="M18.3321 51.2004C18.3321 45.1459 23.2589 40.2337 29.3314 40.2337C35.4039 40.2337 40.3307 45.1459 40.3307 51.2004C40.3307 57.2548 35.4039 62.167 29.3314 62.167C23.2589 62.167 18.3321 57.2548 18.3321 51.2004Z" fill="black"/>
</svg>
