<svg width="166" height="166" viewBox="0 0 166 166" fill="none" xmlns="http://www.w3.org/2000/svg">
<path d="M166 83C166 128.85 128.836 166 83 166C37.1636 166 0 128.85 0 83C0 37.177 37.1636 0 83 0C128.836 0 166 37.177 166 83ZM85.2273 27.4435C66.9884 27.4435 55.3556 35.1267 46.221 48.7819C45.0375 50.551 45.4335 52.9369 47.1296 54.2231L58.7426 63.0285C60.4846 64.3494 62.9665 64.0352 64.32 62.3183C70.2987 54.7352 74.3981 50.3378 83.498 50.3378C90.3351 50.3378 98.7921 54.7382 98.7921 61.3681C98.7921 66.3803 94.6545 68.9543 87.9037 72.7391C80.0307 77.1525 69.6129 82.6456 69.6129 96.3871V97.7258C69.6129 99.9437 71.4111 101.742 73.629 101.742H92.371C94.5889 101.742 96.3871 99.9437 96.3871 97.7258V97.2797C96.3871 87.7541 124.228 87.3575 124.228 61.5806C124.228 42.1687 104.092 27.4435 85.2273 27.4435V27.4435ZM83 110.444C74.5109 110.444 67.6048 117.35 67.6048 125.839C67.6048 134.327 74.5109 141.234 83 141.234C91.4891 141.234 98.3952 134.327 98.3952 125.839C98.3952 117.35 91.4891 110.444 83 110.444V110.444Z" fill="white"/>
</svg>
