<svg width="22" height="22" viewBox="0 0 22 22" fill="none" xmlns="http://www.w3.org/2000/svg">
<path d="M20.9303 17.3237L17.2696 13.663L14.4538 12.4997C15.3914 11.1664 15.8937 9.57584 15.8918 7.94592C15.8918 3.56451 12.3273 0 7.94592 0C3.56451 0 0 3.56451 0 7.94592C0 12.3273 3.56451 15.8918 7.94592 15.8918C9.59002 15.8937 11.1938 15.3827 12.5337 14.4301L13.694 17.2383L17.3546 20.8992C17.5894 21.134 17.8681 21.3202 18.1748 21.4473C18.4816 21.5743 18.8103 21.6397 19.1424 21.6398C19.4744 21.6398 19.8032 21.5744 20.1099 21.4473C20.4167 21.3203 20.6954 21.1341 20.9302 20.8993C21.1649 20.6645 21.3512 20.3858 21.4783 20.0791C21.6053 19.7723 21.6707 19.4436 21.6707 19.1115C21.6708 18.7795 21.6054 18.4507 21.4783 18.144C21.3513 17.8372 21.165 17.5585 20.9303 17.3237V17.3237ZM1.44471 7.94592C1.44471 4.36123 4.36123 1.44471 7.94592 1.44471C11.5306 1.44471 14.4471 4.36123 14.4471 7.94592C14.4471 11.5306 11.5306 14.4471 7.94592 14.4471C4.36123 14.4471 1.44471 11.5306 1.44471 7.94592ZM19.9086 19.8776C19.7053 20.0805 19.4297 20.1945 19.1424 20.1945C18.8552 20.1945 18.5796 20.0805 18.3763 19.8776L14.9192 16.4206L13.8405 13.8095L16.4517 14.8883L19.9087 18.3453C20.1116 18.5487 20.2255 18.8242 20.2255 19.1115C20.2255 19.3987 20.1115 19.6743 19.9086 19.8776V19.8776Z" fill="white"/>
</svg>
