<svg width="157" height="157" viewBox="0 0 157 157" fill="none" xmlns="http://www.w3.org/2000/svg">
<path d="M78.5619 0.020752C35.4453 0.020752 0.511353 34.9547 0.511353 78.0713C0.511353 121.188 35.4453 156.122 78.5619 156.122C121.679 156.122 156.613 121.188 156.613 78.0713C156.613 34.9547 121.679 0.020752 78.5619 0.020752ZM86.1152 62.7759C87.1538 49.5262 96.2492 40.3049 103.74 40.3049C111.23 40.3049 120.325 49.5262 121.364 62.7759C121.584 65.4825 117.965 66.5211 116.675 64.1922L113.685 58.8419C111.261 54.5303 107.642 52.044 103.771 52.044C99.9 52.044 96.2807 54.5303 93.8573 58.8419L90.8675 64.1922C89.5457 66.5211 85.8949 65.4825 86.1152 62.7759ZM35.76 62.7759C36.7986 49.5262 45.894 40.3049 53.3843 40.3049C60.8747 40.3049 69.9701 49.5262 71.0087 62.7759C71.229 65.4825 67.6097 66.5211 66.3193 64.1922L63.3295 58.8419C60.9061 54.5303 57.2869 52.044 53.4158 52.044C49.5447 52.044 45.9255 54.5303 43.5021 58.8419L40.5123 64.1922C39.159 66.5211 35.5397 65.4511 35.76 62.7759ZM126.053 93.8073C123.252 116.152 104.18 133.462 81.0797 133.462H76.0442C52.9437 133.462 33.8717 116.152 31.0707 93.8073C30.693 90.8175 33.0534 88.1424 36.0747 88.1424H121.049C124.07 88.1424 126.431 90.786 126.053 93.8073Z" fill="#DCD382"/>
</svg>
