<svg width="9" height="14" viewBox="0 0 9 14" fill="none" xmlns="http://www.w3.org/2000/svg">
<path d="M4.56394 12.79L4.01756 13.3038C4.15846 13.4536 4.35471 13.539 4.56039 13.54C4.76607 13.5409 4.96312 13.4574 5.10543 13.3089L4.56394 12.79ZM8.73756 9.5189C9.02416 9.21985 9.01406 8.74508 8.715 8.45848C8.41595 8.17188 7.94118 8.18198 7.65458 8.48104L8.73756 9.5189ZM1.54637 8.48618C1.26262 8.18443 0.787969 8.16984 0.486215 8.4536C0.184461 8.73735 0.16987 9.212 0.453626 9.51375L1.54637 8.48618ZM5.10543 13.3089L8.73756 9.5189L7.65458 8.48104L4.02245 12.271L5.10543 13.3089ZM0.453626 9.51375L4.01756 13.3038L5.11031 12.2762L1.54637 8.48618L0.453626 9.51375Z" fill="#615F5F"/>
<path d="M4.56394 1.00001L4.01756 0.486223C4.15846 0.336387 4.35471 0.25099 4.56039 0.250017C4.76607 0.249043 4.96312 0.33258 5.10543 0.481076L4.56394 1.00001ZM8.73756 4.27108C9.02416 4.57013 9.01406 5.0449 8.715 5.3315C8.41595 5.61809 7.94118 5.608 7.65458 5.30894L8.73756 4.27108ZM1.54637 5.30379C1.26262 5.60555 0.787969 5.62014 0.486215 5.33638C0.184461 5.05263 0.16987 4.57798 0.453626 4.27622L1.54637 5.30379ZM5.10543 0.481076L8.73756 4.27108L7.65458 5.30894L4.02245 1.51894L5.10543 0.481076ZM0.453626 4.27622L4.01756 0.486223L5.11031 1.51379L1.54637 5.30379L0.453626 4.27622Z" fill="#615F5F"/>
</svg>
