<svg width="253" height="77" viewBox="0 0 253 77" fill="none" xmlns="http://www.w3.org/2000/svg">
<path d="M123.795 8.55335C124.795 8.90486 125.766 9.46142 126.737 10.1937L125.854 11.3947C124.942 10.721 124.089 10.2523 123.295 9.95939C122.5 9.66647 121.559 9.52 120.529 9.52C119.116 9.52 117.969 9.84222 117.116 10.4867C116.233 11.1311 115.821 12.0392 115.821 13.1523C115.821 14.1775 116.204 14.9684 116.939 15.525C117.675 16.0815 118.999 16.6381 120.911 17.136C123.206 17.7512 124.854 18.4835 125.825 19.333C126.796 20.1825 127.296 21.442 127.296 23.1117C127.296 24.84 126.649 26.246 125.325 27.2712C124.001 28.2965 122.324 28.8237 120.293 28.8237C118.793 28.8237 117.469 28.5894 116.38 28.15C115.262 27.7106 114.232 27.0662 113.261 26.246L114.262 25.1036C115.174 25.8359 116.115 26.3925 117.027 26.744C117.94 27.0955 119.028 27.2712 120.264 27.2712C121.794 27.2712 123.059 26.9197 124.03 26.1874C125.001 25.4551 125.472 24.4299 125.472 23.141C125.472 22.2622 125.325 21.5592 125.001 21.0319C124.707 20.5047 124.148 20.036 123.383 19.6845C122.618 19.3037 121.5 18.9229 120.029 18.5128C117.881 17.9562 116.321 17.2532 115.409 16.433C114.497 15.6128 114.026 14.529 114.026 13.1523C114.026 11.6584 114.644 10.3988 115.88 9.46142C117.116 8.49477 118.675 8.02609 120.529 8.02609C121.735 7.9968 122.824 8.17255 123.795 8.55335Z" fill="white"/>
<path d="M143.508 28.3844H142.008L141.89 24.6642C140.331 27.4177 138.094 28.7944 135.24 28.7944C133.416 28.7944 132.004 28.2672 131.033 27.2127C130.032 26.1581 129.562 24.6349 129.562 22.6723V8.37762H131.327V22.5259C131.327 24.1662 131.68 25.3672 132.416 26.1288C133.122 26.8904 134.211 27.2712 135.623 27.2712C138.094 27.2712 140.125 25.8359 141.772 22.9653V8.37762H143.538V28.3844H143.508Z" fill="white"/>
<path d="M156.219 8.23117L155.866 9.87154C155.366 9.72508 154.777 9.6372 154.101 9.6372C152.688 9.6372 151.541 10.1352 150.688 11.1604C149.834 12.1564 149.128 13.7381 148.54 15.9058V28.3844H146.774V8.37763H148.304L148.422 13.0058C148.952 11.3069 149.687 10.018 150.629 9.22711C151.57 8.40692 152.747 7.99683 154.189 7.99683C155.101 7.99683 155.748 8.0847 156.219 8.23117Z" fill="white"/>
<path d="M162.928 5.00901V8.37764H168.4L168.136 9.87155H162.928V28.3844H161.162V9.87155H157.749V8.37764H161.162V4.95042C161.162 3.42721 161.633 2.19693 162.604 1.31816C163.575 0.439386 164.87 0 166.517 0C168.106 0 169.636 0.351509 171.137 1.08382L170.489 2.43127C169.165 1.84542 167.871 1.5525 166.606 1.5525C164.134 1.52321 162.928 2.6949 162.928 5.00901Z" fill="white"/>
<path d="M185.937 10.6625C187.202 12.4493 187.849 14.9684 187.849 18.2785C187.849 21.5592 187.202 24.1077 185.878 26.0117C184.554 27.8864 182.7 28.8238 180.317 28.8238C179.052 28.8238 177.933 28.5308 176.933 27.9743C175.933 27.4177 175.079 26.6854 174.403 25.7481L174.197 28.3844H172.667V0.234339L174.432 0V11.2776C176.109 9.10995 178.139 8.02613 180.582 8.02613C182.877 7.99684 184.671 8.90491 185.937 10.6625ZM184.407 24.9865C185.436 23.4633 185.937 21.2077 185.937 18.2785C185.937 15.3492 185.466 13.1523 184.495 11.6877C183.524 10.2231 182.141 9.49076 180.287 9.49076C179.022 9.49076 177.933 9.78368 177.021 10.3988C176.109 11.014 175.227 11.8634 174.373 13.0351V23.9905C175.079 25.0158 175.874 25.8067 176.845 26.3925C177.786 26.9783 178.846 27.2713 179.993 27.2713C181.935 27.2713 183.377 26.5097 184.407 24.9865Z" fill="white"/>
<path d="M204.267 10.6918C205.738 12.4786 206.474 15.0271 206.474 18.3078C206.474 21.5886 205.738 24.137 204.238 26.0117C202.737 27.8864 200.707 28.7945 198.118 28.7945C195.529 28.7945 193.498 27.8571 192.027 26.0117C190.556 24.1663 189.82 21.6179 189.82 18.3957C189.82 15.1442 190.556 12.5958 192.086 10.7504C193.587 8.90495 195.617 7.96759 198.177 7.96759C200.766 7.99688 202.796 8.90495 204.267 10.6918ZM193.381 11.8049C192.233 13.3281 191.645 15.525 191.645 18.425C191.645 21.2664 192.204 23.434 193.351 24.9865C194.469 26.5097 196.058 27.2713 198.118 27.2713C200.148 27.2713 201.737 26.5097 202.884 24.9865C204.032 23.4633 204.62 21.2371 204.62 18.3078C204.62 15.4372 204.061 13.2695 202.914 11.7756C201.796 10.2817 200.207 9.52009 198.147 9.52009C196.117 9.54938 194.528 10.311 193.381 11.8049Z" fill="white"/>
<path d="M222.833 26.4804C223.098 26.9783 223.539 27.3298 224.128 27.5642L223.716 28.8238C222.833 28.5894 222.186 28.2086 221.745 27.6814C221.303 27.1541 221.009 26.3632 220.921 25.3087C219.45 27.6521 217.331 28.8238 214.565 28.8238C212.653 28.8238 211.152 28.2672 210.064 27.1834C208.946 26.0996 208.416 24.6349 208.416 22.8481C208.416 20.7976 209.152 19.2158 210.623 18.1027C212.094 16.9896 214.065 16.4331 216.596 16.4331H220.715V14.324C220.715 12.6543 220.332 11.4533 219.597 10.6917C218.861 9.93014 217.625 9.54934 215.889 9.54934C214.271 9.54934 212.447 9.95943 210.417 10.7503L209.917 9.34429C212.153 8.46551 214.183 8.05542 216.037 8.05542C218.243 8.05542 219.862 8.58268 220.891 9.63721C221.921 10.6917 222.451 12.2442 222.451 14.2654V24.1077C222.421 25.1915 222.539 25.9824 222.833 26.4804ZM220.656 23.5218V17.8098H216.802C214.683 17.8098 213.094 18.2199 211.947 19.0694C210.829 19.8896 210.24 21.1491 210.24 22.8188C210.24 24.2541 210.652 25.3673 211.447 26.1582C212.241 26.949 213.359 27.3591 214.742 27.3591C217.361 27.3298 219.303 26.041 220.656 23.5218Z" fill="white"/>
<path d="M236.662 8.23117L236.309 9.87154C235.809 9.72508 235.22 9.6372 234.544 9.6372C233.131 9.6372 231.984 10.1352 231.131 11.1604C230.277 12.1564 229.571 13.7381 228.983 15.9058V28.3844H227.217V8.37763H228.747L228.865 13.0058C229.395 11.3069 230.13 10.018 231.072 9.22711C232.013 8.40692 233.19 7.99683 234.632 7.99683C235.515 7.99683 236.191 8.0847 236.662 8.23117Z" fill="white"/>
<path d="M252.874 0.234339V28.3844H251.344L251.138 25.2501C250.521 26.3339 249.697 27.1834 248.696 27.8278C247.696 28.4722 246.431 28.7945 244.989 28.7945C242.694 28.7945 240.899 27.8571 239.546 26.0117C238.192 24.1663 237.515 21.6471 237.515 18.4542C237.515 16.3745 237.839 14.5583 238.457 13.0058C239.075 11.424 239.987 10.2231 241.164 9.31499C242.341 8.43622 243.753 7.99683 245.371 7.99683C247.725 7.99683 249.638 8.93419 251.109 10.7796V0L252.874 0.234339ZM248.608 26.2753C249.52 25.6016 250.344 24.6056 251.08 23.2875V12.6836C249.638 10.5746 247.814 9.49075 245.577 9.49075C243.694 9.49075 242.194 10.2816 241.046 11.8341C239.899 13.3866 239.34 15.5543 239.34 18.3371C239.34 21.1784 239.869 23.3754 240.899 24.9279C241.929 26.4804 243.371 27.2713 245.195 27.2713C246.578 27.2713 247.696 26.949 248.608 26.2753Z" fill="white"/>
<path d="M74.5261 50.5652L75.1699 50.4229C75.3706 50.3809 75.5714 50.3396 75.7722 50.2998C76.0784 50.2387 76.3897 50.1768 76.6967 50.12C76.9317 50.078 77.163 50.0397 77.3979 49.9932L77.4503 49.9778C77.6925 49.9358 77.9326 49.8893 78.1748 49.8628L79.3525 49.6859V26.981H79.311C78.7007 26.9846 78.0955 26.9964 77.4859 27.0156C76.8145 27.0355 76.133 27.0738 75.463 27.1195C75.175 27.1379 74.8833 27.1659 74.5909 27.1881H74.5494V50.5571L74.5261 50.5652ZM80.493 26.9964V49.54C81.3303 49.4397 82.1639 49.3594 82.9975 49.2982C85.0546 49.1413 87.1197 49.0911 89.1804 49.1486C90.2715 49.1833 91.3626 49.2481 92.4501 49.3403V28.4587C91.4761 28.2317 90.4999 28.0319 89.5143 27.8602C87.6049 27.5263 85.6802 27.2912 83.7482 27.1416C82.668 27.065 81.5805 27.0112 80.4974 26.9964H80.493ZM90.9349 41.5361L90.8891 41.5331L90.3428 41.4712C88.9869 41.3297 87.6231 41.2332 86.2628 41.1875C84.8989 41.1411 83.5358 41.1573 82.1682 41.203H82.1268C82.081 41.203 82.0395 41.203 81.9937 41.1875C81.8947 41.1573 81.8045 41.1145 81.7354 41.0423C81.6103 40.9074 81.5543 40.7305 81.5841 40.5537C81.5921 40.4925 81.6103 40.4505 81.6372 40.3893C81.6634 40.3473 81.6976 40.2891 81.7354 40.2589C81.7769 40.2169 81.8227 40.1859 81.8758 40.1549C81.9362 40.1284 81.9929 40.1129 82.0504 40.0982H82.137C82.3268 40.0982 82.5159 40.0827 82.6905 40.0827C84.0428 40.0525 85.3797 40.0525 86.7327 40.1093C88.1301 40.1712 89.5136 40.2743 90.8927 40.4357L91.0404 40.4512C91.0819 40.4667 91.1241 40.4667 91.1692 40.4778C91.271 40.5242 91.3583 40.5817 91.4194 40.6583C91.4608 40.7003 91.487 40.7586 91.5176 40.8197C91.5489 40.8779 91.5634 40.9347 91.5634 40.9966C91.5787 41.158 91.5176 41.3187 91.4041 41.4381C91.3583 41.4845 91.3132 41.511 91.271 41.5413C91.2266 41.5729 91.1692 41.5833 91.1117 41.5995C91.0819 41.615 91.0659 41.615 91.0251 41.615H90.9793L90.9349 41.5361ZM90.9684 38.8733C90.9226 38.8733 90.9226 38.8733 90.8775 38.8652L90.3392 38.7952C88.9869 38.619 87.6238 38.5004 86.2708 38.4421C84.9186 38.3692 83.5503 38.3537 82.1828 38.3839L82.137 38.3692C82.0955 38.3537 82.0504 38.3537 82.0089 38.339C81.9217 38.3117 81.8191 38.2505 81.7624 38.1776C81.7325 38.1311 81.6867 38.0736 81.6751 38.0309C81.5994 37.8658 81.5994 37.6779 81.6867 37.5172C81.7165 37.4553 81.7471 37.4133 81.7885 37.3668C81.83 37.3248 81.8758 37.2784 81.9333 37.2674C81.9937 37.2371 82.0504 37.2054 82.1071 37.2054L82.1944 37.1907L82.7625 37.1752C84.1184 37.1598 85.4517 37.1907 86.7894 37.2637C88.1882 37.3366 89.571 37.4708 90.9495 37.6469L91.0979 37.6624L91.1852 37.6779C91.287 37.7081 91.3743 37.7508 91.4463 37.8393C91.5634 37.9579 91.6209 38.1193 91.6056 38.2807C91.6056 38.3419 91.5911 38.3994 91.5641 38.4421C91.5343 38.5041 91.5038 38.5461 91.4768 38.5918C91.447 38.6338 91.4048 38.6655 91.3452 38.7119C91.3037 38.7384 91.2426 38.7532 91.1859 38.7686L91.0986 38.7841H91.0571L90.9684 38.8733ZM90.9684 36.209C90.9226 36.209 90.9226 36.209 90.8775 36.2009L90.3392 36.1243C88.9869 35.9356 87.634 35.7941 86.2708 35.702C84.9186 35.6135 83.5503 35.5715 82.1828 35.5752H82.137L82.0504 35.5597C81.9929 35.545 81.9478 35.5251 81.8911 35.4949C81.7463 35.4027 81.6445 35.245 81.614 35.0652C81.614 35.0033 81.614 34.945 81.6292 34.8883C81.6445 34.8264 81.6591 34.7733 81.6867 34.7195C81.7165 34.6657 81.7624 34.6193 81.8038 34.5773C81.8758 34.5043 81.9777 34.4542 82.0802 34.4321C82.1261 34.4203 82.1675 34.4166 82.2133 34.4166H82.7662C84.1599 34.4247 85.5587 34.4785 86.9378 34.5854C88.2901 34.6893 89.6271 34.8389 90.9684 35.0342L91.1117 35.0541C91.1575 35.0622 91.1728 35.0622 91.199 35.0725C91.2564 35.0924 91.3161 35.119 91.3583 35.1529C91.4194 35.1846 91.4608 35.2266 91.4914 35.273C91.5212 35.318 91.5489 35.3725 91.5787 35.43C91.6391 35.5833 91.6201 35.7565 91.5489 35.898C91.5219 35.9518 91.4914 36.0019 91.4463 36.0447C91.3743 36.1176 91.287 36.1677 91.1852 36.1899C91.1582 36.2016 91.1437 36.2016 91.0979 36.2053L91.0564 36.209H90.9684ZM90.9684 33.5455C90.9226 33.5455 90.9226 33.5455 90.8775 33.5374L90.3392 33.4489C88.9869 33.2256 87.634 33.0649 86.2708 32.9618C84.9186 32.8431 83.5503 32.7849 82.1828 32.7547H82.137L82.0351 32.7429C81.9777 32.7281 81.9253 32.6964 81.8758 32.6699C81.8227 32.6397 81.7805 32.5933 81.7391 32.5513C81.7049 32.5048 81.6751 32.4473 81.6489 32.4061C81.6292 32.3442 81.614 32.2859 81.6074 32.2255C81.5921 32.0486 81.6561 31.8607 81.7813 31.742C81.8533 31.6691 81.9522 31.6189 82.0548 31.5917C82.0955 31.5806 82.1413 31.5806 82.1828 31.5806C82.369 31.5806 82.5501 31.5843 82.7363 31.5887C84.1301 31.6189 85.5209 31.7 86.9109 31.8305C88.2559 31.9454 89.5972 32.1216 90.9313 32.3442L91.0644 32.3596C91.1022 32.3596 91.1131 32.3596 91.151 32.3707C91.2121 32.3906 91.2579 32.4171 91.3103 32.4473C91.3561 32.4746 91.3976 32.521 91.4325 32.563C91.519 32.6964 91.5605 32.8578 91.5343 33.02C91.519 33.0812 91.5045 33.1232 91.4732 33.1843C91.4434 33.2263 91.4012 33.2846 91.3561 33.3148C91.2841 33.3885 91.1968 33.4334 91.095 33.4651H90.9618L90.9684 33.5455ZM75.7685 33.0421C75.6812 33.0421 75.594 33.0222 75.5074 32.9802C75.3175 32.8888 75.1997 32.692 75.1852 32.4857C75.1852 32.4274 75.1997 32.3736 75.215 32.3243C75.2295 32.2542 75.2608 32.1938 75.3023 32.1356C75.3466 32.0707 75.4041 32.0169 75.4616 31.9786C75.5372 31.9285 75.6245 31.9019 75.6965 31.8865L76.1621 31.8445C76.7993 31.7877 77.4277 31.7413 78.0533 31.703H78.1093C78.2119 31.7066 78.2984 31.7258 78.3712 31.7715C78.5603 31.8717 78.6774 32.0715 78.6774 32.2822C78.6774 32.3353 78.6621 32.3891 78.6476 32.4392C78.6323 32.5041 78.6061 32.5697 78.5603 32.6227C78.5189 32.6994 78.4577 32.7414 78.401 32.7878C78.329 32.8298 78.2533 32.8608 78.1661 32.8763C78.0671 32.8917 77.9653 32.8917 77.8627 32.9028C77.7296 32.9183 77.5863 32.9183 77.4387 32.9345L76.3061 33.0222L76.0297 33.0539C75.9722 33.0686 75.9126 33.0686 75.8398 33.0686L75.7685 33.0421ZM90.9531 30.8812L90.8629 30.8694L90.3283 30.7729C88.9717 30.5429 87.6041 30.355 86.2403 30.2164C84.8873 30.0815 83.5198 29.9975 82.1522 29.9511H82.1064L82.0191 29.9327C81.9631 29.9172 81.9209 29.898 81.8598 29.8641C81.8184 29.8324 81.7725 29.7941 81.7318 29.744C81.6132 29.6106 81.5689 29.4219 81.6132 29.2495C81.6285 29.1876 81.6547 29.1308 81.686 29.0726C81.7158 29.0107 81.758 28.9687 81.8031 28.923C81.8751 28.8493 81.9769 28.8028 82.0795 28.7763C82.121 28.7608 82.1668 28.7608 82.2083 28.7608L82.7764 28.7763C84.1286 28.8345 85.4656 28.923 86.8033 29.0718C88.2006 29.217 89.5798 29.4249 90.9633 29.6592L91.1066 29.674C91.1524 29.674 91.1677 29.674 91.1939 29.6895C91.255 29.7042 91.311 29.7359 91.3568 29.7624C91.4856 29.8663 91.5729 30.0159 91.5889 30.1774C91.6034 30.2341 91.5889 30.2923 91.5736 30.3542C91.5736 30.411 91.5474 30.4729 91.5161 30.5156C91.4863 30.5621 91.4558 30.6041 91.4143 30.649C91.3423 30.7227 91.2397 30.7647 91.1379 30.7795L91.0542 30.795H91.0084L90.9531 30.8812ZM75.7533 30.1243C75.6711 30.1243 75.5874 30.1059 75.511 30.0712C75.4434 30.0358 75.3794 29.9894 75.3299 29.9364C75.2841 29.8826 75.2463 29.8251 75.2201 29.7558C75.2004 29.7094 75.1888 29.6563 75.1822 29.6025C75.1626 29.391 75.2579 29.1839 75.4317 29.0652C75.5081 29.0151 75.591 28.9805 75.682 28.9687C75.8369 28.9576 75.9897 28.9576 76.141 28.9421C76.7731 28.8957 77.403 28.8692 78.0315 28.8389H78.081C78.1682 28.8537 78.2555 28.8692 78.3275 28.9119C78.5014 29.0151 78.6192 29.2222 78.6192 29.4256C78.6192 29.4875 78.604 29.5443 78.588 29.5907C78.5581 29.6637 78.5319 29.7211 78.4898 29.7831C78.4439 29.8398 78.3828 29.898 78.3115 29.9282C78.2395 29.9747 78.1522 30.0012 78.0649 30.0012C77.9631 30.0167 77.8605 30.0167 77.7427 30.0167L77.307 30.0469C76.9171 30.0734 76.5381 30.0889 76.1584 30.1199L75.8675 30.1353C75.7947 30.1508 75.7387 30.1508 75.6776 30.1508L75.7533 30.1243Z" fill="white"/>
<path d="M72.9544 23.102C72.6573 24.3179 63.844 23.7921 55.6248 24.6465C54.9647 24.3836 54.2715 24.1536 53.5453 23.9564C44.963 21.4918 32.0236 23.6935 23.0452 28.3599C29.845 23.2992 40.4408 17.4826 50.1454 17.2197C66.6167 16.8254 73.3835 21.4261 72.9544 23.102Z" fill="url(#paint0_linear_57_371)"/>
<path d="M55.658 28.5902C55.658 28.5902 45.0952 23.1351 32.8819 33.2237C20.6687 43.3124 17.2358 57.1473 19.7775 58.8232C22.3192 60.4992 25.2569 48.3074 36.6449 39.9276C43.4117 34.9326 53.1163 30.8248 58.1666 37.8901C63.6791 41.5378 55.658 28.5902 55.658 28.5902Z" fill="url(#paint1_linear_57_371)"/>
<path d="M62.8206 56.7201C62.8206 56.7201 65.2632 27.8672 38.097 29.6746C35.1262 29.9046 31.0001 31.712 26.9071 33.4866C21.0645 36.1156 16.5753 36.477 15.9812 35.6883C15.453 34.9982 18.3248 31.8435 23.045 28.3272C32.0234 23.6608 44.9628 21.4262 53.5451 23.9237C54.2713 24.1209 54.9645 24.3509 55.6247 24.6138C62.3914 27.1442 66.3195 31.712 67.4748 38.2187C69.6534 50.5091 64.9331 58.396 62.8206 56.7201Z" fill="url(#paint2_linear_57_371)"/>
<path d="M50.178 14.2621C54.1339 14.2621 57.3409 11.0694 57.3409 7.13106C57.3409 3.19268 54.1339 0 50.178 0C46.222 0 43.0151 3.19268 43.0151 7.13106C43.0151 11.0694 46.222 14.2621 50.178 14.2621Z" fill="white"/>
<path d="M3.34229 64.0507C3.34229 64.0507 38.6874 77.2503 73.2833 65.5137C92.4881 59.0115 95.3825 53.322 90.1386 54.4924C68.7545 59.3691 34.7715 64.3433 15.4985 61.4823C-4.72782 58.4588 -0.811944 61.6449 3.34229 64.0507Z" fill="url(#paint3_linear_57_371)"/>
<path d="M121.378 69.0235C119.677 69.0235 118.355 68.5412 117.413 67.5767C116.471 66.5862 116 65.1916 116 63.393V39.4242L121.574 38.7986V63.2366C121.574 64.1489 121.954 64.6051 122.713 64.6051C123.132 64.6051 123.498 64.5269 123.812 64.3705L124.95 68.3196C123.877 68.7889 122.687 69.0235 121.378 69.0235Z" fill="white"/>
<path d="M133.387 47.6745V68.3978H127.812V47.6745H133.387ZM130.56 37C131.555 37 132.366 37.3128 132.994 37.9384C133.648 38.538 133.975 39.3069 133.975 40.2454C133.975 41.1838 133.648 41.9658 132.994 42.5914C132.366 43.1909 131.555 43.4907 130.56 43.4907C129.566 43.4907 128.754 43.1909 128.126 42.5914C127.498 41.9658 127.184 41.1838 127.184 40.2454C127.184 39.3069 127.498 38.538 128.126 37.9384C128.754 37.3128 129.566 37 130.56 37Z" fill="white"/>
<path d="M150.158 47.0489C152.592 47.0489 154.476 48.0134 155.811 49.9423C157.172 51.8713 157.852 54.5692 157.852 58.0362C157.852 60.1737 157.512 62.0766 156.831 63.7449C156.177 65.3871 155.222 66.6774 153.966 67.6158C152.736 68.5543 151.283 69.0235 149.608 69.0235C147.331 69.0235 145.513 68.1372 144.152 66.3646L143.838 68.3978H138.891V39.4242L144.466 38.7986V49.9032C145.12 49.0169 145.944 48.3262 146.939 47.8309C147.933 47.3095 149.006 47.0489 150.158 47.0489ZM148.038 64.9179C150.707 64.9179 152.042 62.624 152.042 58.0362C152.042 55.5077 151.715 53.7351 151.061 52.7185C150.433 51.6758 149.517 51.1544 148.313 51.1544C146.821 51.1544 145.539 52.0407 144.466 53.8133V62.6891C145.382 64.175 146.572 64.9179 148.038 64.9179Z" fill="white"/>
<path d="M173.033 47.088C173.661 47.088 174.354 47.1922 175.113 47.4008L174.171 52.7576C173.438 52.5751 172.823 52.4839 172.326 52.4839C171.096 52.4839 170.141 52.914 169.46 53.7742C168.78 54.6344 168.243 55.9378 167.851 57.6843V68.3978H162.276V47.6745H167.105L167.615 51.7019C168.112 50.2421 168.832 49.1082 169.774 48.3001C170.743 47.492 171.829 47.088 173.033 47.088Z" fill="white"/>
<path d="M192.398 62.65C192.398 63.4581 192.516 64.0577 192.751 64.4487C192.987 64.8136 193.379 65.0873 193.929 65.2698L192.751 68.9453C191.521 68.841 190.514 68.5543 189.728 68.085C188.97 67.6158 188.381 66.886 187.962 65.8954C186.601 67.9808 184.52 69.0235 181.72 69.0235C179.653 69.0235 178.004 68.4369 176.774 67.2639C175.57 66.0648 174.968 64.5138 174.968 62.6109C174.968 60.3431 175.792 58.6096 177.441 57.4106C179.09 56.2115 181.458 55.6119 184.547 55.6119H186.941V54.5953C186.941 53.318 186.653 52.4317 186.078 51.9365C185.502 51.4412 184.547 51.1935 183.212 51.1935C181.746 51.1935 179.914 51.5585 177.716 52.2884L176.46 48.5738C179.051 47.5572 181.616 47.0489 184.154 47.0489C186.981 47.0489 189.061 47.6615 190.396 48.8866C191.731 50.0857 192.398 51.8843 192.398 54.2825V62.65ZM183.251 65.0352C184.821 65.0352 186.051 64.2662 186.941 62.7283V58.7791H185.096C182.087 58.7791 180.582 59.9 180.582 62.1417C180.582 63.0541 180.804 63.7709 181.249 64.2923C181.72 64.7875 182.388 65.0352 183.251 65.0352Z" fill="white"/>
<path d="M208.724 47.088C209.352 47.088 210.045 47.1922 210.804 47.4008L209.862 52.7576C209.129 52.5751 208.514 52.4839 208.017 52.4839C206.787 52.4839 205.832 52.914 205.151 53.7742C204.471 54.6344 203.934 55.9378 203.542 57.6843V68.3978H197.967V47.6745H202.796L203.306 51.7019C203.803 50.2421 204.523 49.1082 205.465 48.3001C206.434 47.492 207.52 47.088 208.724 47.088Z" fill="white"/>
<path d="M224.287 68.4369C223.45 71.0697 222.128 73.103 220.322 74.5367C218.543 75.9703 216.122 76.7915 213.06 77L212.471 73.0117C214.46 72.7511 215.912 72.2818 216.828 71.6041C217.771 70.9264 218.543 69.8576 219.145 68.3978H217.221L210.744 47.6745H216.671L220.833 64.8006L225.229 47.6745H231L224.287 68.4369Z" fill="white"/>
<defs>
<linearGradient id="paint0_linear_57_371" x1="31.4404" y1="23.1571" x2="70.4014" y2="20.3138" gradientUnits="userSpaceOnUse">
<stop stop-color="white"/>
<stop offset="1" stop-color="#DDDDDD"/>
</linearGradient>
<linearGradient id="paint1_linear_57_371" x1="19.9566" y1="46.5702" x2="59.6083" y2="35.7444" gradientUnits="userSpaceOnUse">
<stop stop-color="white"/>
<stop offset="1" stop-color="#DDDDDD"/>
</linearGradient>
<linearGradient id="paint2_linear_57_371" x1="15.9218" y1="39.9416" x2="68.0357" y2="39.9416" gradientUnits="userSpaceOnUse">
<stop stop-color="white"/>
<stop offset="1" stop-color="white"/>
</linearGradient>
<linearGradient id="paint3_linear_57_371" x1="-0.00431995" y1="62.3586" x2="92.4465" y2="62.3586" gradientUnits="userSpaceOnUse">
<stop stop-color="white"/>
<stop offset="1" stop-color="white"/>
</linearGradient>
</defs>
</svg>
