<svg width="746" height="523" viewBox="0 0 746 523" fill="none" xmlns="http://www.w3.org/2000/svg">
<path d="M626.472 226.77C631.25 214.301 633.93 200.667 633.93 186.45C633.93 124.688 583.822 74.58 522.06 74.58C499.103 74.58 477.662 81.5719 459.949 93.4581C427.67 37.5231 367.423 0 298.32 0C195.306 0 111.87 83.4364 111.87 186.45C111.87 189.596 111.987 192.743 112.103 195.889C46.8456 218.846 0 281.073 0 354.255C0 446.897 75.1627 522.06 167.805 522.06H596.64C679.028 522.06 745.8 455.288 745.8 372.9C745.8 300.767 694.526 240.521 626.472 226.77ZM458.434 298.32H382.223V428.835C382.223 439.09 373.832 447.48 363.578 447.48H307.643C297.388 447.48 288.998 439.09 288.998 428.835V298.32H212.786C196.122 298.32 187.848 278.277 199.618 266.507L322.442 143.683C329.667 136.458 341.553 136.458 348.778 143.683L471.602 266.507C483.372 278.277 474.981 298.32 458.434 298.32Z" fill="white"/>
</svg>
