<svg width="21" height="21" viewBox="0 0 21 21" fill="none" xmlns="http://www.w3.org/2000/svg">
<path d="M19.1748 12.9035L16.4118 11.0957L17.4756 9.14546C17.7322 8.65848 17.8666 8.11645 17.8673 7.56601V4.47428C17.8695 3.60495 17.6177 2.75392 17.1429 2.02568C16.6681 1.29745 15.991 0.723726 15.1947 0.374954C14.3984 0.0261814 13.5176 -0.0824533 12.6604 0.0623897C11.8032 0.207233 11.007 0.599248 10.3695 1.1903L11.3034 2.19842C11.7451 1.79 12.2964 1.51934 12.8897 1.41965C13.483 1.31995 14.0925 1.39554 14.6434 1.63714C15.1944 1.87875 15.6629 2.27588 15.9915 2.77983C16.3201 3.28379 16.4944 3.87267 16.4932 4.47428V7.56601C16.4931 7.88653 16.4163 8.20237 16.2693 8.48718L14.5982 11.5509L18.4224 14.0532C18.6749 14.2184 18.882 14.4441 19.0251 14.7098C19.1681 14.9754 19.2425 15.2726 19.2415 15.5742V17.8718H16.1497V19.2459H20.6156V15.5742C20.6169 15.0443 20.4859 14.5224 20.2343 14.056C19.9826 13.5895 19.6185 13.1934 19.1748 12.9035Z" fill="#A8A8A8"/>
<path d="M12.9913 14.2776L10.2284 12.4698L11.2922 10.5196C11.5488 10.0326 11.6832 9.49055 11.6839 8.94011V5.84838C11.683 4.66331 11.2121 3.52699 10.3744 2.68869C9.53679 1.8504 8.40083 1.37859 7.21576 1.37679C4.75453 1.37679 2.7522 3.38276 2.7522 5.84838V8.94011C2.74958 9.4903 2.88253 10.0327 3.13931 10.5193L4.20888 12.4801L1.462 14.2776C1.01886 14.5671 0.654998 14.9625 0.403439 15.4282C0.151879 15.8939 0.0205846 16.415 0.0214704 16.9443L0 20.62H14.4321V16.9483C14.4335 16.4184 14.3024 15.8965 14.0508 15.4301C13.7992 14.9636 13.435 14.5675 12.9913 14.2776ZM13.058 19.2459H1.38209L1.3954 16.9483C1.39436 16.6466 1.46874 16.3494 1.61178 16.0838C1.75481 15.8182 1.96197 15.5925 2.21441 15.4273L6.02248 12.9355L4.3456 9.86128C4.20023 9.57605 4.12505 9.26024 4.12631 8.94011V5.84838C4.12631 5.0284 4.45204 4.242 5.03185 3.66219C5.61167 3.08238 6.39806 2.75664 7.21804 2.75664C8.03802 2.75664 8.82441 3.08238 9.40423 3.66219C9.98404 4.242 10.3098 5.0284 10.3098 5.84838V8.94011C10.3096 9.26063 10.2329 9.57647 10.0858 9.86128L8.41476 12.925L12.239 15.4273C12.4914 15.5925 12.6986 15.8182 12.8416 16.0839C12.9846 16.3495 13.059 16.6467 13.058 16.9483V19.2459Z" fill="#A8A8A8"/>
</svg>
